<?xml version="1.0" encoding="UTF-8"?>
<svg version="1.1" xmlns="http://www.w3.org/2000/svg" width="500" height="500">
<path d="M0 0 C165 0 330 0 500 0 C500 165 500 330 500 500 C335 500 170 500 0 500 C0 335 0 170 0 0 Z " fill="#FEFEFE" transform="translate(0,0)"/>
<path d="M0 0 C4.27799379 3.4029496 6.58741138 6.84932323 7.30078125 12.296875 C7.36396807 25.52398335 4.38612497 38.57935252 0 51 C-0.26409668 51.75764648 -0.52819336 52.51529297 -0.80029297 53.29589844 C-11.94251277 84.94251277 -11.94251277 84.94251277 -19 92 C-19.28746817 96.55549939 -19.23206014 101.12404922 -19.25 105.6875 C-19.270625 106.94884766 -19.29125 108.21019531 -19.3125 109.50976562 C-19.35544815 119.99448348 -18.95561919 131.0259363 -13 140 C-7.79128518 139.78519757 -7.79128518 139.78519757 -3.84765625 136.65625 C-3.25855469 135.6146875 -2.66945313 134.573125 -2.0625 133.5 C-1.73604492 132.93047607 -1.40958984 132.36095215 -1.07324219 131.77416992 C4.47588312 121.86974976 9.39777962 111.41714372 13.11328125 100.6875 C14 99 14 99 17 98 C16.42602339 103.76799446 14.21385789 108.49104719 11.8125 113.6875 C11.40467285 114.57800049 10.9968457 115.46850098 10.57666016 116.38598633 C-0.35090307 140.0336128 -0.35090307 140.0336128 -8.9375 146.0625 C-12.79923754 147.24466455 -16.01022192 147.81391473 -20 147 C-26.14737294 143.45343869 -27.90346421 138.58332494 -30 132 C-30.32291016 130.99066406 -30.32291016 130.99066406 -30.65234375 129.9609375 C-32.21706515 124.410174 -32.59944116 118.73431603 -33 113 C-33.39155273 113.79265259 -33.39155273 113.79265259 -33.79101562 114.60131836 C-46.1907337 139.49033215 -46.1907337 139.49033215 -55 143 C-58.89984657 142.9187532 -60.4662393 142.5337607 -63.25 139.75 C-66.00227638 135.42499426 -67.23429339 131.82263841 -67.4140625 126.69921875 C-67.45273437 125.72275391 -67.49140625 124.74628906 -67.53125 123.74023438 C-67.57765625 122.22913086 -67.57765625 122.22913086 -67.625 120.6875 C-67.66367187 119.66076172 -67.70234375 118.63402344 -67.7421875 117.57617188 C-67.83614897 115.05095735 -67.9218154 112.52574408 -68 110 C-68.39155273 110.80050781 -68.39155273 110.80050781 -68.79101562 111.6171875 C-80.35139738 135.02139294 -80.35139738 135.02139294 -90 139 C-93.34170498 138.86076229 -95.38664736 138.4030603 -98.1875 136.5625 C-102.54048852 130.40827485 -103.40903605 123.36264892 -103 116 C-103.68707031 116.34933594 -104.37414062 116.69867188 -105.08203125 117.05859375 C-105.98308594 117.51363281 -106.88414062 117.96867187 -107.8125 118.4375 C-108.70582031 118.88996094 -109.59914063 119.34242188 -110.51953125 119.80859375 C-114.62755638 121.78173968 -117.66939564 122.11108177 -122.1875 122.0625 C-123.27417969 122.05347656 -124.36085938 122.04445313 -125.48046875 122.03515625 C-126.72763672 122.01775391 -126.72763672 122.01775391 -128 122 C-128.07476562 122.556875 -128.14953125 123.11375 -128.2265625 123.6875 C-129.80080158 132.82426014 -134.72156269 138.54117202 -142 144 C-145.47370107 145.73685053 -149.20190812 145.46115112 -153 145 C-158.21764834 142.34195273 -161.48155439 138.80912438 -164.25 133.6875 C-165.27302173 130.02167213 -165.12885445 126.80120622 -165 123 C-165.68707031 123.34933594 -166.37414062 123.69867188 -167.08203125 124.05859375 C-167.98308594 124.51363281 -168.88414062 124.96867187 -169.8125 125.4375 C-170.70582031 125.88996094 -171.59914062 126.34242188 -172.51953125 126.80859375 C-176.30693955 128.62774262 -179.53362557 129.22041622 -183.6875 129.5625 C-184.68136719 129.64628906 -185.67523438 129.73007812 -186.69921875 129.81640625 C-187.45847656 129.87699219 -188.21773437 129.93757812 -189 130 C-189.30292969 130.79664063 -189.60585937 131.59328125 -189.91796875 132.4140625 C-193.30813236 140.98856863 -196.12369124 147.37700286 -204.88671875 151.3046875 C-209.76991216 152.91135742 -213.56644526 152.71677737 -218.25 150.375 C-223.08282552 146.20119615 -225.39216681 142.38224849 -226 136 C-226.66 136 -227.32 136 -228 136 C-228.26683594 136.87140625 -228.53367188 137.7428125 -228.80859375 138.640625 C-232.66044413 149.50158017 -240.27029737 160.5916818 -250 167 C-254.09921397 168.11796745 -256.04948515 168.52806381 -259.8125 166.4375 C-264.28606383 161.45267173 -264.29425357 155.91714662 -264.1875 149.5625 C-264.1865332 148.47485352 -264.1865332 148.47485352 -264.18554688 147.36523438 C-264.14879149 142.81981857 -263.73858733 138.48470224 -263 134 C-263.70511719 134.16371094 -264.41023438 134.32742188 -265.13671875 134.49609375 C-268.09658688 135.01699824 -270.81061273 135.09866732 -273.8125 135.0625 C-274.78832031 135.05347656 -275.76414062 135.04445313 -276.76953125 135.03515625 C-277.87361328 135.01775391 -277.87361328 135.01775391 -279 135 C-279.25394531 135.83917969 -279.50789063 136.67835938 -279.76953125 137.54296875 C-284.24175566 150.10778972 -292.40984044 164.80610786 -304 172 C-306.93340412 172.92160589 -309.06845292 172.92050578 -312 172 C-316.97161648 169.24572447 -319.75899298 165.60561496 -321.4453125 160.234375 C-322.45097813 156.18338385 -323.28384485 152.11157307 -324 148 C-324.49628906 148.74765625 -324.99257813 149.4953125 -325.50390625 150.265625 C-332.75459437 160.77705901 -332.75459437 160.77705901 -339 163 C-344.41612571 163.79717868 -348.47177733 164.06039941 -353.0625 160.875 C-358.08374033 153.42412725 -357.86733674 144.66252572 -357 136 C-356.13306102 132.04459088 -354.80099347 128.61881866 -353 125 C-352.57589844 124.13761719 -352.15179688 123.27523437 -351.71484375 122.38671875 C-347.80209729 115.20426774 -341.85834108 108.0060062 -334 105 C-331.74609375 104.91796875 -331.74609375 104.91796875 -329.4375 105.1875 C-328.67308594 105.26355469 -327.90867187 105.33960938 -327.12109375 105.41796875 C-324.62543308 106.10278171 -323.73742375 107.1403579 -322 109 C-321.86537354 108.03682861 -321.86537354 108.03682861 -321.72802734 107.05419922 C-318.95727041 87.62439561 -315.70837232 67.79072381 -307 50 C-306.53851563 49.03835937 -306.07703125 48.07671875 -305.6015625 47.0859375 C-301.93604074 39.89065404 -297.74236882 34.49491255 -291 30 C-288.6953125 29.62890625 -288.6953125 29.62890625 -286.125 29.5625 C-284.86042969 29.50255859 -284.86042969 29.50255859 -283.5703125 29.44140625 C-279.70887554 30.28059392 -278.32422299 31.84217759 -276 35 C-275.332389 37.86008103 -275.38282235 40.57640218 -275.5 43.5 C-275.52767456 44.69713623 -275.52767456 44.69713623 -275.5559082 45.91845703 C-275.97876703 57.527854 -279.29411327 67.47266212 -284 78 C-284.50402344 79.21300781 -285.00804687 80.42601562 -285.52734375 81.67578125 C-291.15564915 95.16378203 -297.84250522 108.39557156 -306.72265625 120.0546875 C-310.3449959 125.57127816 -309.18414545 132.87087669 -309.1875 139.1875 C-309.20586914 140.97897461 -309.20586914 140.97897461 -309.22460938 142.80664062 C-309.23829081 151.09303114 -308.9290119 158.5801368 -305 166 C-301.50407573 165.75552977 -300.2613739 165.28617581 -297.859375 162.65625 C-293.56883777 156.23633503 -289.57286527 149.71935567 -285.875 142.9375 C-285.47249023 142.21175781 -285.06998047 141.48601562 -284.65527344 140.73828125 C-282.56359145 137.05289271 -282.56359145 137.05289271 -282.27783203 132.95922852 C-283.01478736 130.72572378 -283.01478736 130.72572378 -285 128 C-285.82740533 120.74677147 -285.15995057 114.56297427 -282 108 C-281.34 107.34 -280.68 106.68 -280 106 C-276.93513966 106.16130844 -275.23265047 106.84280374 -272.6875 108.5625 C-270.1764863 112.18951979 -270.65305461 114.62848813 -271 119 C-271.495 120.485 -271.495 120.485 -272 122 C-272.03954234 124.33299825 -272.04401732 126.66708189 -272 129 C-267.40855982 130.430542 -264.84018136 129.43344267 -260.5 127.5625 C-256.4845969 125.84094283 -253.40333451 124.54530785 -249 125 C-248 126 -248 126 -247.8125 128.875 C-247.84468383 132.04832608 -248.3536736 134.95921649 -249 138.0625 C-250.25394476 144.46562218 -252.00624635 153.98750731 -249 160 C-245.85625946 159.73033377 -245.00475313 159.00542964 -242.88671875 156.5859375 C-234.7949986 144.77173862 -229.3748501 133.23838147 -225.77246094 119.36743164 C-223.25458335 109.82583706 -219.4564902 101.54707516 -211.75 95.125 C-207.18440892 93.25725819 -202.71405625 93.10770753 -198.00390625 94.65625 C-193.17532094 97.06535063 -191.24223601 100.1705686 -189 105 C-188.13102002 107.84315713 -187.88115057 110.36107954 -187.90234375 113.328125 C-187.90556641 114.12734375 -187.90878906 114.9265625 -187.91210938 115.75 C-187.92048828 116.575 -187.92886719 117.4 -187.9375 118.25 C-187.94201172 119.09046875 -187.94652344 119.9309375 -187.95117188 120.796875 C-187.96292039 122.86461401 -187.98085478 124.93231624 -188 127 C-185.43471112 126.40615522 -182.87324546 125.80038512 -180.3125 125.1875 C-179.59126953 125.02185547 -178.87003906 124.85621094 -178.12695312 124.68554688 C-173.90831602 123.66459817 -170.68197094 122.38405911 -167 120 C-166.34 120 -165.68 120 -165 120 C-164.93683594 119.29617188 -164.87367188 118.59234375 -164.80859375 117.8671875 C-163.55927541 107.79373644 -160.06834575 97.06263113 -152.1875 90.1875 C-147.63365391 87.06231151 -144.48118691 86.4467587 -139 87 C-133.84608257 88.81902968 -131.09385659 91.53109604 -128 96 C-126.1103545 101.29752342 -125.74336158 105.90362324 -125.875 111.4375 C-125.88402344 112.16904297 -125.89304687 112.90058594 -125.90234375 113.65429688 C-125.92563847 115.43634298 -125.9614981 117.21821759 -126 119 C-113.53843982 117.96720539 -113.53843982 117.96720539 -103 112 C-101.9111784 108.76477189 -101.55815738 105.82168233 -101.28125 102.421875 C-100.7425775 95.86802625 -98.89882739 84.89882739 -94 80 C-90.45377897 79.60597544 -88.601154 79.61464487 -85.5625 81.5625 C-83.3338427 85.03920539 -84.25078963 86.97601528 -85 91 C-85.485756 93.17451911 -85.99638385 95.34214474 -86.51098633 97.51000977 C-90.4336359 113.37686959 -90.4336359 113.37686959 -88 129 C-85.1982633 129.29170908 -85.1982633 129.29170908 -82 128 C-79.38432074 125.01165676 -77.75126583 121.54442797 -76 118 C-75.68772461 117.37383789 -75.37544922 116.74767578 -75.05371094 116.10253906 C-69.90090639 105.62063655 -66.31156647 95.02030121 -63.32421875 83.7421875 C-59.89239879 71.08463228 -59.89239879 71.08463228 -56 68 C-52.35265021 68.22330713 -50.61627165 68.38372835 -48 71 C-47.63242288 76.60404457 -48.37315046 81.45215334 -49.8125 86.875 C-55.8997779 109.94517575 -55.8997779 109.94517575 -53 133 C-50.07351032 132.67594237 -48.4272292 132.40610776 -46.26171875 130.34765625 C-44.38680736 127.62601069 -42.67683634 124.8485601 -41 122 C-39.93265625 120.35064453 -39.93265625 120.35064453 -38.84375 118.66796875 C-31.48868355 105.96406378 -31.97289864 92.20412156 -31.49119568 77.96061707 C-31.4631636 77.13959 -31.43513153 76.31856293 -31.40625 75.47265625 C-31.37849991 74.65658401 -31.35074982 73.84051178 -31.32215881 72.99971008 C-30.51441337 51.67100957 -27.50613594 20.71148903 -12.29296875 4.140625 C-8.27178023 0.65755173 -5.30650456 -0.62429465 0 0 Z " fill="#2965EB" transform="translate(424,154)"/>
<path d="M0 0 C4.27799379 3.4029496 6.58741138 6.84932323 7.30078125 12.296875 C7.36396807 25.52398335 4.38612497 38.57935252 0 51 C-0.26409668 51.75764648 -0.52819336 52.51529297 -0.80029297 53.29589844 C-11.94251277 84.94251277 -11.94251277 84.94251277 -19 92 C-19.28746817 96.55549939 -19.23206014 101.12404922 -19.25 105.6875 C-19.270625 106.94884766 -19.29125 108.21019531 -19.3125 109.50976562 C-19.35544815 119.99448348 -18.95561919 131.0259363 -13 140 C-7.79128518 139.78519757 -7.79128518 139.78519757 -3.84765625 136.65625 C-3.25855469 135.6146875 -2.66945313 134.573125 -2.0625 133.5 C-1.73604492 132.93047607 -1.40958984 132.36095215 -1.07324219 131.77416992 C4.47588312 121.86974976 9.39777962 111.41714372 13.11328125 100.6875 C14 99 14 99 17 98 C16.42602339 103.76799446 14.21385789 108.49104719 11.8125 113.6875 C11.40467285 114.57800049 10.9968457 115.46850098 10.57666016 116.38598633 C-0.35090307 140.0336128 -0.35090307 140.0336128 -8.9375 146.0625 C-12.79923754 147.24466455 -16.01022192 147.81391473 -20 147 C-26.14737294 143.45343869 -27.90346421 138.58332494 -30 132 C-30.32291016 130.99066406 -30.32291016 130.99066406 -30.65234375 129.9609375 C-32.21706515 124.410174 -32.59944116 118.73431603 -33 113 C-33.26103516 113.52843506 -33.52207031 114.05687012 -33.79101562 114.60131836 C-46.1907337 139.49033215 -46.1907337 139.49033215 -55 143 C-58.89984657 142.9187532 -60.4662393 142.5337607 -63.25 139.75 C-66.00227638 135.42499426 -67.23429339 131.82263841 -67.4140625 126.69921875 C-67.47207031 125.23452148 -67.47207031 125.23452148 -67.53125 123.74023438 C-67.5621875 122.73283203 -67.593125 121.72542969 -67.625 120.6875 C-67.68300781 119.14739258 -67.68300781 119.14739258 -67.7421875 117.57617188 C-67.83614897 115.05095735 -67.9218154 112.52574408 -68 110 C-68.26103516 110.53367187 -68.52207031 111.06734375 -68.79101562 111.6171875 C-80.35139738 135.02139294 -80.35139738 135.02139294 -90 139 C-93.34170498 138.86076229 -95.38664736 138.4030603 -98.1875 136.5625 C-102.54048852 130.40827485 -103.40903605 123.36264892 -103 116 C-103.65226562 116.34933594 -104.30453125 116.69867188 -104.9765625 117.05859375 C-109.63695125 119.48502034 -113.67136947 121.57931864 -119 122 C-119 121.34 -119 120.68 -119 120 C-121.64 120 -124.28 120 -127 120 C-126.67 118.68 -126.34 117.36 -126 116 C-126 116.99 -126 117.98 -126 119 C-113.53843982 117.96720539 -113.53843982 117.96720539 -103 112 C-101.9111784 108.76477189 -101.55815738 105.82168233 -101.28125 102.421875 C-100.7425775 95.86802625 -98.89882739 84.89882739 -94 80 C-90.45377897 79.60597544 -88.601154 79.61464487 -85.5625 81.5625 C-83.3338427 85.03920539 -84.25078963 86.97601528 -85 91 C-85.485756 93.17451911 -85.99638385 95.34214474 -86.51098633 97.51000977 C-90.4336359 113.37686959 -90.4336359 113.37686959 -88 129 C-85.1982633 129.29170908 -85.1982633 129.29170908 -82 128 C-79.38432074 125.01165676 -77.75126583 121.54442797 -76 118 C-75.68772461 117.37383789 -75.37544922 116.74767578 -75.05371094 116.10253906 C-69.90090639 105.62063655 -66.31156647 95.02030121 -63.32421875 83.7421875 C-59.89239879 71.08463228 -59.89239879 71.08463228 -56 68 C-52.35265021 68.22330713 -50.61627165 68.38372835 -48 71 C-47.63242288 76.60404457 -48.37315046 81.45215334 -49.8125 86.875 C-55.8997779 109.94517575 -55.8997779 109.94517575 -53 133 C-50.07351032 132.67594237 -48.4272292 132.40610776 -46.26171875 130.34765625 C-44.38680736 127.62601069 -42.67683634 124.8485601 -41 122 C-40.2884375 120.90042969 -39.576875 119.80085938 -38.84375 118.66796875 C-31.48868355 105.96406378 -31.97289864 92.20412156 -31.49119568 77.96061707 C-31.4631636 77.13959 -31.43513153 76.31856293 -31.40625 75.47265625 C-31.37849991 74.65658401 -31.35074982 73.84051178 -31.32215881 72.99971008 C-30.51441337 51.67100957 -27.50613594 20.71148903 -12.29296875 4.140625 C-8.27178023 0.65755173 -5.30650456 -0.62429465 0 0 Z " fill="#2A66EB" transform="translate(424,154)"/>
<path d="M0 0 C5.15391743 1.81902968 7.90614341 4.53109604 11 9 C14.02032547 16.04742611 14.24096912 25.63169355 12 33 C14.64 33 17.28 33 20 33 C20 33.66 20 34.32 20 35 C17.03 35 14.06 35 11 35 C10.79375 36.32 10.5875 37.64 10.375 39 C8.59582443 46.96870186 3.36563262 52.22577553 -3 57 C-6.47370107 58.73685053 -10.20190812 58.46115112 -14 58 C-19.21764834 55.34195273 -22.48155439 51.80912438 -25.25 46.6875 C-26.27302173 43.02167213 -26.12885445 39.80120622 -26 36 C-26.68707031 36.34933594 -27.37414062 36.69867188 -28.08203125 37.05859375 C-28.98308594 37.51363281 -29.88414062 37.96867187 -30.8125 38.4375 C-31.70582031 38.88996094 -32.59914063 39.34242188 -33.51953125 39.80859375 C-37.30693955 41.62774262 -40.53362557 42.22041622 -44.6875 42.5625 C-45.68136719 42.64628906 -46.67523438 42.73007812 -47.69921875 42.81640625 C-48.83810547 42.90728516 -48.83810547 42.90728516 -50 43 C-50.30292969 43.79664063 -50.60585937 44.59328125 -50.91796875 45.4140625 C-54.30813236 53.98856863 -57.12369124 60.37700286 -65.88671875 64.3046875 C-70.76991216 65.91135742 -74.56644526 65.71677737 -79.25 63.375 C-84.08282552 59.20119615 -86.39216681 55.38224849 -87 49 C-87.66 49 -88.32 49 -89 49 C-89.25910156 49.85851562 -89.51820313 50.71703125 -89.78515625 51.6015625 C-91.04018404 55.11241193 -92.58258313 58.14385448 -94.4375 61.375 C-95.03433594 62.43460937 -95.63117188 63.49421875 -96.24609375 64.5859375 C-96.82488281 65.38257813 -97.40367187 66.17921875 -98 67 C-98.99 67 -99.98 67 -101 67 C-99.69686338 63.4466017 -98.04953807 60.22743595 -96.18261719 56.9387207 C-91.81388343 49.18855475 -89.18891629 41.64470628 -87 33 C-84.31262964 23.24185962 -80.70712466 15.29780947 -73.125 8.375 C-68.33575118 6.26773052 -64.00814687 6.0031827 -59.0078125 7.66015625 C-54.17313647 10.05674458 -52.2409728 13.17328936 -50 18 C-49.13102002 20.84315713 -48.88115057 23.36107954 -48.90234375 26.328125 C-48.90556641 27.12734375 -48.90878906 27.9265625 -48.91210938 28.75 C-48.92467773 29.9875 -48.92467773 29.9875 -48.9375 31.25 C-48.94201172 32.09046875 -48.94652344 32.9309375 -48.95117188 33.796875 C-48.96292039 35.86461401 -48.98085478 37.93231624 -49 40 C-46.43471112 39.40615522 -43.87324546 38.80038512 -41.3125 38.1875 C-40.59126953 38.02185547 -39.87003906 37.85621094 -39.12695312 37.68554688 C-34.90831602 36.66459817 -31.68197094 35.38405911 -28 33 C-27.34 33 -26.68 33 -26 33 C-25.93683594 32.29617188 -25.87367188 31.59234375 -25.80859375 30.8671875 C-24.55927541 20.79373644 -21.06834575 10.06263113 -13.1875 3.1875 C-8.63365391 0.06231151 -5.48118691 -0.5532413 0 0 Z " fill="#2B67EB" transform="translate(285,241)"/>
<path d="M0 0 C2.9375 0.8125 2.9375 0.8125 4.9375 2.8125 C5.30507712 8.41654457 4.56434954 13.26465334 3.125 18.6875 C-2.9622779 41.75767575 -2.9622779 41.75767575 -0.0625 64.8125 C4.45228398 64.28134894 7.28416857 62.44629708 10.9375 59.8125 C9.32902183 65.5315335 4.96661866 70.96717484 -0.1015625 74.0546875 C-3.1183557 75.22053985 -5.00985677 74.76645101 -8.0625 73.8125 C-12.50873345 69.36626655 -14.25869441 64.72095935 -14.4765625 58.51171875 C-14.53457031 57.04702148 -14.53457031 57.04702148 -14.59375 55.55273438 C-14.6246875 54.54533203 -14.655625 53.53792969 -14.6875 52.5 C-14.74550781 50.95989258 -14.74550781 50.95989258 -14.8046875 49.38867188 C-14.89864897 46.86345735 -14.9843154 44.33824408 -15.0625 41.8125 C-15.32353516 42.34617187 -15.58457031 42.87984375 -15.85351562 43.4296875 C-27.41389738 66.83389294 -27.41389738 66.83389294 -37.0625 70.8125 C-40.40420498 70.67326229 -42.44914736 70.2155603 -45.25 68.375 C-49.60298852 62.22077485 -50.47153605 55.17514892 -50.0625 47.8125 C-50.71476562 48.16183594 -51.36703125 48.51117188 -52.0390625 48.87109375 C-56.69945125 51.29752034 -60.73386947 53.39181864 -66.0625 53.8125 C-66.0625 53.1525 -66.0625 52.4925 -66.0625 51.8125 C-68.7025 51.8125 -71.3425 51.8125 -74.0625 51.8125 C-73.7325 50.4925 -73.4025 49.1725 -73.0625 47.8125 C-73.0625 48.8025 -73.0625 49.7925 -73.0625 50.8125 C-60.60093982 49.77970539 -60.60093982 49.77970539 -50.0625 43.8125 C-48.9736784 40.57727189 -48.62065738 37.63418233 -48.34375 34.234375 C-47.8050775 27.68052625 -45.96132739 16.71132739 -41.0625 11.8125 C-37.51627897 11.41847544 -35.663654 11.42714487 -32.625 13.375 C-30.3963427 16.85170539 -31.31328963 18.78851528 -32.0625 22.8125 C-32.548256 24.98701911 -33.05888385 27.15464474 -33.57348633 29.32250977 C-37.4961359 45.18936959 -37.4961359 45.18936959 -35.0625 60.8125 C-32.2607633 61.10420908 -32.2607633 61.10420908 -29.0625 59.8125 C-26.44682074 56.82415676 -24.81376583 53.35692797 -23.0625 49.8125 C-22.75022461 49.18633789 -22.43794922 48.56017578 -22.11621094 47.91503906 C-16.96340639 37.43313655 -13.37406647 26.83280121 -10.38671875 15.5546875 C-6.06866662 -0.37155102 -6.06866662 -0.37155102 0 0 Z " fill="#2A66EB" transform="translate(371.0625,222.1875)"/>
<path d="M0 0 C3.06486034 0.16130844 4.76734953 0.84280374 7.3125 2.5625 C9.8235137 6.18951979 9.34694539 8.62848813 9 13 C8.67 13.99 8.34 14.98 8 16 C7.96045766 18.33299825 7.95598268 20.66708189 8 23 C12.59144018 24.430542 15.15981864 23.43344267 19.5 21.5625 C23.5154031 19.84094283 26.59666549 18.54530785 31 19 C32 20 32 20 32.1875 22.875 C32.15531617 26.04832608 31.6463264 28.95921649 31 32.0625 C29.74605524 38.46562218 27.99375365 47.98750731 31 54 C34.2008465 53.65705216 34.95413975 53.05558818 37.0625 50.5 C37.701875 49.675 38.34125 48.85 39 48 C39.99 47.67 40.98 47.34 42 47 C40.67828902 50.88379688 39.09969164 53.30871782 36.1875 56.1875 C35.52105469 56.86167969 34.85460937 57.53585937 34.16796875 58.23046875 C30.81267983 60.96910998 28.20810809 62.07248649 23.875 61.8125 C20.83032463 60.95204827 19.77183291 60.56915772 18 58 C15.96114006 53.05595134 15.72433024 48.8109209 15.8125 43.5625 C15.81314453 42.83740234 15.81378906 42.11230469 15.81445312 41.36523438 C15.85120851 36.81981857 16.26141267 32.48470224 17 28 C15.94232422 28.24556641 15.94232422 28.24556641 14.86328125 28.49609375 C11.90341312 29.01699824 9.18938727 29.09866732 6.1875 29.0625 C4.72376953 29.04896484 4.72376953 29.04896484 3.23046875 29.03515625 C2.12638672 29.01775391 2.12638672 29.01775391 1 29 C0.74734375 29.83789062 0.4946875 30.67578125 0.234375 31.5390625 C-1.12064334 35.33825949 -2.8412456 38.83377608 -4.75 42.375 C-5.10344482 43.03185791 -5.45688965 43.68871582 -5.82104492 44.36547852 C-11.53726943 54.80284759 -11.53726943 54.80284759 -15 58 C-15.99 58 -16.98 58 -18 58 C-16.50110373 54.80983574 -14.7128649 51.82730542 -12.87646484 48.8215332 C-5.35082433 38.43021513 -5.35082433 38.43021513 -2.2578125 26.91796875 C-3.02673721 24.72476534 -3.02673721 24.72476534 -5 22 C-5.82740533 14.74677147 -5.15995057 8.56297427 -2 2 C-1.34 1.34 -0.68 0.68 0 0 Z " fill="#2B67EB" transform="translate(144,260)"/>
<path d="M0 0 C3.28170231 4.92255346 2.27212843 10.09331762 1.171875 15.6640625 C-3.51510138 38.23828283 -13.8125347 60.16456977 -27 79 C-27.33 79 -27.66 79 -28 79 C-27.18133106 55.01300008 -22.83634127 21.61964255 -8 2 C-4.79191085 -0.1387261 -3.72301503 -0.47730962 0 0 Z " fill="#F9FBFE" transform="translate(144,191)"/>
<path d="M0 0 C7.60618147 22.81854442 -9.28892591 55.4107929 -19.09375 75.21484375 C-19.7273537 76.4774739 -20.36201184 77.73957957 -21 79 C-21.33 79 -21.66 79 -22 79 C-22.90025773 54.45964109 -21.34343037 21.33197785 -5.5390625 1.1328125 C-4 0 -4 0 0 0 Z " fill="#F9FAFE" transform="translate(427,161)"/>
<path d="M0 0 C0.60199219 0.20238281 1.20398438 0.40476562 1.82421875 0.61328125 C1.88807128 4.94815862 1.8654178 9.27822523 1.82421875 13.61328125 C1.85322266 15.21236328 1.85322266 15.21236328 1.8828125 16.84375 C1.68555998 27.42963542 -2.78045073 36.66358472 -9.77734375 44.54296875 C-12.17578125 46.61328125 -12.17578125 46.61328125 -14.80078125 46.73828125 C-18.15578123 45.14907073 -18.8440325 44.11788322 -20.17578125 40.61328125 C-21.90944963 29.63973192 -17.80972091 18.04147239 -11.73828125 8.98828125 C-4.25498493 -0.75627201 -4.25498493 -0.75627201 0 0 Z " fill="#F7F9FE" transform="translate(100.17578125,266.38671875)"/>
<path d="M0 0 C2 1 2 1 3.5625 4.625 C6.05967006 9.8549222 10.10581217 13.02729788 15 16 C17.16874269 16.70561443 17.16874269 16.70561443 19 17 C18.6480946 23.68620254 14.96226067 30.32930042 10.015625 34.7890625 C8 36 8 36 4.5625 36.1875 C0.31882386 34.77294129 -1.01675414 33.56455346 -3.12109375 29.703125 C-6.23652171 20.12145323 -4.44904132 8.89808264 0 0 Z " fill="#F9FBFE" transform="translate(213,265)"/>
<path d="M0 0 C2 2 2 2 3.6875 5.25 C6.69165658 10.59940892 10.75738993 14.10295597 16.4375 16.375 C17.7059375 16.684375 17.7059375 16.684375 19 17 C18.07578928 24.39368576 14.49451203 30.09948927 9 35 C8.505 35.495 8.505 35.495 8 36 C3.80995803 35.84188521 1.67938711 35.66150851 -1.375 32.6875 C-5.61795964 25.67029752 -4.93466403 15.65611774 -3.36328125 7.828125 C-1.48382957 1.48382957 -1.48382957 1.48382957 0 0 Z " fill="#FAFBFE" transform="translate(275,258)"/>
<path d="M0 0 C0.99 0.33 1.98 0.66 3 1 C4.52458085 27.14373829 -6.84415764 54.39773062 -19 77 C-19.99 77 -20.98 77 -22 77 C-20.64404524 72.6227674 -18.91311552 68.66243005 -16.875 64.5625 C-7.21201677 44.32152712 -0.82056788 22.48355986 0 0 Z " fill="#3C74ED" transform="translate(428,163)"/>
<path d="M0 0 C2.36328125 -0.12890625 2.36328125 -0.12890625 5 0 C9.39453927 4.14342274 10.82732377 8.83869675 11.15234375 14.7890625 C11.24124204 22.27627389 11.24124204 22.27627389 10 26 C7.34278026 25.33569507 5.50771772 24.66303927 3.8125 22.44921875 C0.60020084 16.93398453 -0.12669587 12.66958688 -0.0625 6.25 C-0.05347656 5.07953125 -0.04445312 3.9090625 -0.03515625 2.703125 C-0.02355469 1.81109375 -0.01195312 0.9190625 0 0 Z " fill="#F6F8FE" transform="translate(223,254)"/>
<path d="M0 0 C2.359375 -0.140625 2.359375 -0.140625 5 0 C8.401313 3.401313 9.84565306 6.26092271 10.11352539 11.01464844 C10.10828857 11.7059082 10.10305176 12.39716797 10.09765625 13.109375 C10.09443359 13.86347656 10.09121094 14.61757813 10.08789062 15.39453125 C10.07951172 16.17183594 10.07113281 16.94914062 10.0625 17.75 C10.05798828 18.54277344 10.05347656 19.33554687 10.04882812 20.15234375 C10.03708565 22.10159508 10.01915146 24.05080738 10 26 C5.16355843 24.3264631 3.5569423 22.47464902 1 18 C-0.2062252 14.38132441 -0.10816918 11.07493749 -0.0625 7.3125 C-0.05798828 6.61060547 -0.05347656 5.90871094 -0.04882812 5.18554688 C-0.03706927 3.45699462 -0.01913454 1.72848635 0 0 Z " fill="#FAFBFE" transform="translate(285,247)"/>
<path d="M0 0 C0.99 0 1.98 0 3 0 C1.89927025 8.34583156 -0.57090338 15.34837217 -4 23 C-4.5053125 24.21558594 -5.010625 25.43117187 -5.53125 26.68359375 C-8.69299602 34.26209374 -12.22893094 41.55353007 -16.1875 48.75 C-16.81144653 49.8939624 -16.81144653 49.8939624 -17.44799805 51.06103516 C-19.57902695 54.85739683 -21.57157016 58.21027122 -25 61 C-25.66 61 -26.32 61 -27 61 C-25.58360788 57.08534842 -23.71030899 53.85538226 -21.4375 50.375 C-11.5625248 34.64472932 -5.49425132 17.66187517 0 0 Z " fill="#3A72EC" transform="translate(144,209)"/>
<path d="M0 0 C0.66 0 1.32 0 2 0 C1.42596635 5.76856764 -0.78712109 10.49017055 -3.1875 15.6875 C-3.7916272 17.01346191 -3.7916272 17.01346191 -4.40795898 18.36621094 C-7.33994275 24.73627733 -10.45796048 30.94380694 -14 37 C-14.99 37 -15.98 37 -17 37 C-15.7077039 33.68706942 -14.30907007 30.46895921 -12.7578125 27.26953125 C-12.33113281 26.38330078 -11.90445312 25.49707031 -11.46484375 24.58398438 C-10.5807478 22.7552203 -9.69535823 20.92708098 -8.80859375 19.09960938 C-6.24763248 13.77388662 -3.90491391 8.4250514 -1.79248047 2.9050293 C-1 1 -1 1 0 0 Z " fill="#3871EC" transform="translate(439,252)"/>
<path d="M0 0 C0.99 0 1.98 0 3 0 C1.57019009 4.74171655 -0.40721265 9.02853477 -2.75 13.375 C-3.10344482 14.03185791 -3.45688965 14.68871582 -3.82104492 15.36547852 C-9.53726943 25.80284759 -9.53726943 25.80284759 -13 29 C-13.99 29 -14.98 29 -16 29 C-14.17891734 25.12411283 -11.91749218 21.52328735 -9.6875 17.875 C-6.15512929 12.05209101 -2.89057042 6.17332878 0 0 Z " fill="#3C73ED" transform="translate(142,289)"/>
<path d="M0 0 C-0.41558443 2.32727283 -0.86569999 3.82413094 -2.3125 5.71875 C-4.42998448 8.58127532 -6.02068859 11.60507282 -7.6875 14.75 C-8.00783203 15.35199219 -8.32816406 15.95398438 -8.65820312 16.57421875 C-9.4418167 18.04788011 -10.22132733 19.52372194 -11 21 C-11.99 21 -12.98 21 -14 21 C-12.32345047 16.67450221 -10.43960253 12.46194023 -8.5 8.25 C-8.19191406 7.56550781 -7.88382812 6.88101562 -7.56640625 6.17578125 C-4.71698639 0 -4.71698639 0 0 0 Z " fill="#3F75ED" transform="translate(358,260)"/>
<path d="M0 0 C1.32 0.66 2.64 1.32 4 2 C4 4.64 4 7.28 4 10 C3.67 10 3.34 10 3 10 C2.67 8.35 2.34 6.7 2 5 C1.46890625 5.77085937 0.9378125 6.54171875 0.390625 7.3359375 C-0.31578125 8.33882813 -1.0221875 9.34171875 -1.75 10.375 C-2.44609375 11.37273437 -3.1421875 12.37046875 -3.859375 13.3984375 C-5.86722376 15.83863326 -7.09043174 16.91218844 -10 18 C-8.70126608 14.45970129 -7.15122134 11.52988067 -5 8.4375 C-3.09937057 5.69584204 -1.42409849 3.01936265 0 0 Z " fill="#3971EC" transform="translate(98,297)"/>
<path d="M0 0 C0.33 0.66 0.66 1.32 1 2 C0.34 2 -0.32 2 -1 2 C-1.25910156 2.85851562 -1.51820313 3.71703125 -1.78515625 4.6015625 C-3.04018404 8.11241193 -4.58258313 11.14385448 -6.4375 14.375 C-7.03433594 15.43460937 -7.63117188 16.49421875 -8.24609375 17.5859375 C-8.82488281 18.38257813 -9.40367187 19.17921875 -10 20 C-10.99 20 -11.98 20 -13 20 C-11.46677718 15.954417 -9.62738484 12.14676093 -7.625 8.3125 C-6.74714844 6.60513672 -6.74714844 6.60513672 -5.8515625 4.86328125 C-4.02779163 2.04297736 -3.11642305 1.06397703 0 0 Z " fill="#3B73ED" transform="translate(197,288)"/>
<path d="M0 0 C1.32712688 3.98138065 0.21074411 5.28059793 -1.56054688 8.90234375 C-1.93244141 9.63582031 -2.30433594 10.36929687 -2.6875 11.125 C-3.04005859 11.86621094 -3.39261719 12.60742188 -3.75585938 13.37109375 C-4.10841797 14.07621094 -4.46097656 14.78132813 -4.82421875 15.5078125 C-5.14479248 16.15379395 -5.46536621 16.79977539 -5.7956543 17.46533203 C-7.34436934 19.43882134 -8.56957189 19.63265042 -11 20 C-9.39717958 15.80061051 -7.49516522 11.77372232 -5.5 7.75 C-5.19191406 7.11320312 -4.88382812 6.47640625 -4.56640625 5.8203125 C-2.23501591 1.11750796 -2.23501591 1.11750796 0 0 Z " fill="#3870EC" transform="translate(390,264)"/>
<path d="M0 0 C0.66 0.33 1.32 0.66 2 1 C2 1.66 2 2.32 2 3 C-8.37357631 8.55580866 -8.37357631 8.55580866 -14 9 C-14 8.34 -14 7.68 -14 7 C-14.66 6.67 -15.32 6.34 -16 6 C-14.64455078 5.60167969 -14.64455078 5.60167969 -13.26171875 5.1953125 C-12.08222656 4.84210938 -10.90273437 4.48890625 -9.6875 4.125 C-8.51574219 3.77695312 -7.34398437 3.42890625 -6.13671875 3.0703125 C-2.89088275 2.11234547 -2.89088275 2.11234547 0 0 Z " fill="#366FEC" transform="translate(257,274)"/>
<path d="M0 0 C0.99 0 1.98 0 3 0 C2.71515154 1.73030291 2.42180062 3.45920714 2.125 5.1875 C1.96257812 6.15042969 1.80015625 7.11335937 1.6328125 8.10546875 C1.01960483 10.91032604 0.14333657 13.37224747 -1 16 C-1.99 15.67 -2.98 15.34 -4 15 C-3.52229477 13.06213915 -3.04278429 11.12472326 -2.5625 9.1875 C-2.29566406 8.10855469 -2.02882812 7.02960938 -1.75390625 5.91796875 C-1.23922588 3.9259157 -0.65062825 1.95188476 0 0 Z " fill="#4A7DEE" transform="translate(144,209)"/>
<path d="M0 0 C1.18504789 3.55514368 0.77142408 4.29496512 -0.6875 7.625 C-1.02136719 8.42164063 -1.35523438 9.21828125 -1.69921875 10.0390625 C-3 12 -3 12 -5.14453125 12.7734375 C-5.75683594 12.84820312 -6.36914062 12.92296875 -7 13 C-6.34206835 11.32986582 -5.67276716 9.6642135 -5 8 C-4.75894531 7.38769531 -4.51789063 6.77539062 -4.26953125 6.14453125 C-2.22574386 1.11287193 -2.22574386 1.11287193 0 0 Z " fill="#3870EC" transform="translate(233,284)"/>
<path d="M0 0 C1.32 0.66 2.64 1.32 4 2 C4 4.64 4 7.28 4 10 C3.67 10 3.34 10 3 10 C2.67 8.35 2.34 6.7 2 5 C1.54625 5.495 1.0925 5.99 0.625 6.5 C-1 8 -1 8 -3 8 C-1.125 2.25 -1.125 2.25 0 0 Z " fill="#5183EF" transform="translate(98,297)"/>
<path d="M0 0 C0.99 0 1.98 0 3 0 C3.33 2.31 3.66 4.62 4 7 C3.34 7 2.68 7 2 7 C2 10.63 2 14.26 2 18 C1.67 18 1.34 18 1 18 C0.67 12.06 0.34 6.12 0 0 Z " fill="#5887EF" transform="translate(294,252)"/>
<path d="M0 0 C0.66 0 1.32 0 2 0 C1.44894091 3.9492568 0.61064629 7.34920174 -1 11 C-1.99 10.67 -2.98 10.34 -4 10 C-3.52449439 8.51965236 -3.04448784 7.04074979 -2.5625 5.5625 C-2.29566406 4.73878906 -2.02882813 3.91507813 -1.75390625 3.06640625 C-1 1 -1 1 0 0 Z " fill="#3F76ED" transform="translate(439,252)"/>
<path d="M0 0 C0.33 0.99 0.66 1.98 1 3 C7.435 2.505 7.435 2.505 14 2 C13.67 2.99 13.34 3.98 13 5 C11.35 5.33 9.7 5.66 8 6 C8 5.34 8 4.68 8 4 C5.36 4 2.72 4 0 4 C0 2.68 0 1.36 0 0 Z " fill="#5F8CF0" transform="translate(297,270)"/>
<path d="M0 0 C0.33 0 0.66 0 1 0 C0.85892253 1.45880109 0.71197585 2.91703551 0.5625 4.375 C0.48128906 5.18710938 0.40007812 5.99921875 0.31640625 6.8359375 C0 9 0 9 -1 11 C-1.66 11 -2.32 11 -3 11 C-2.88590407 9.54077307 -2.75834456 8.08259402 -2.625 6.625 C-2.55539062 5.81289062 -2.48578125 5.00078125 -2.4140625 4.1640625 C-2 2 -2 2 0 0 Z " fill="#306BEC" transform="translate(426,189)"/>
<path d="M0 0 C0.66 0.33 1.32 0.66 2 1 C1 4 1 4 -0.84765625 4.94921875 C-1.57855469 5.19285156 -2.30945313 5.43648438 -3.0625 5.6875 C-4.16271484 6.06455078 -4.16271484 6.06455078 -5.28515625 6.44921875 C-5.85105469 6.63097656 -6.41695313 6.81273437 -7 7 C-6.68359375 5.11328125 -6.68359375 5.11328125 -6 3 C-3.0625 1.1875 -3.0625 1.1875 0 0 Z " fill="#4076ED" transform="translate(317,268)"/>
<path d="M0 0 C0.6875 1.75 0.6875 1.75 1 4 C-0.7573799 7.07541482 -1.57945994 7.85981998 -5 9 C-4.690625 8.236875 -4.38125 7.47375 -4.0625 6.6875 C-3.32106407 4.81210323 -2.63771783 2.91315348 -2 1 C-1.34 0.67 -0.68 0.34 0 0 Z " fill="#3E75ED" transform="translate(294,279)"/>
<path d="M0 0 C0.33 0.66 0.66 1.32 1 2 C1.66 2 2.32 2 3 2 C2.25 6.75 2.25 6.75 0 9 C-0.66 9 -1.32 9 -2 9 C-1.34 6.03 -0.68 3.06 0 0 Z " fill="#497DEE" transform="translate(422,198)"/>
<path d="M0 0 C0.99 0 1.98 0 3 0 C2.125 5.75 2.125 5.75 1 8 C0.34 8 -0.32 8 -1 8 C-0.67 5.36 -0.34 2.72 0 0 Z " fill="#3A72EC" transform="translate(144,209)"/>
<path d="M0 0 C0 0.66 0 1.32 0 2 C-1.98 2.33 -3.96 2.66 -6 3 C-6 2.34 -6 1.68 -6 1 C-6.66 0.67 -7.32 0.34 -8 0 C-4.94736336 -0.98120464 -3.05263664 -0.98120464 0 0 Z " fill="#487CEE" transform="translate(249,280)"/>
</svg>
