<?xml version="1.0" standalone="no"?>
<!DOCTYPE svg PUBLIC "-//W3C//DTD SVG 20010904//EN"
 "http://www.w3.org/TR/2001/REC-SVG-20010904/DTD/svg10.dtd">
<svg version="1.0" xmlns="http://www.w3.org/2000/svg"
 width="1200.000000pt" height="1200.000000pt" viewBox="0 0 1200.000000 1200.000000"
 preserveAspectRatio="xMidYMid meet">

<g transform="translate(0.000000,1200.000000) scale(0.100000,-0.100000)"
fill="#000000" stroke="none">
<path d="M4270 6000 c0 -1024 2 -1160 15 -1160 13 0 15 136 15 1160 0 1024 -2
1160 -15 1160 -13 0 -15 -136 -15 -1160z"/>
<path d="M1799 6815 c-37 -20 -49 -62 -49 -169 0 -121 16 -155 83 -175 l47
-15 0 -543 0 -543 -25 0 c-82 0 -109 -52 -103 -202 3 -105 5 -111 31 -133 33
-29 94 -39 193 -33 93 6 125 26 138 87 l9 41 532 0 531 0 10 -42 c15 -69 44
-83 178 -83 170 0 193 27 184 213 -6 108 -24 138 -90 148 l-38 7 0 543 0 543
35 7 c78 14 102 72 93 222 -5 87 -19 117 -62 132 -40 14 -219 13 -251 -2 -29
-13 -55 -55 -55 -88 0 -20 -2 -20 -533 -20 l-533 0 -12 45 c-17 64 -44 75
-179 75 -74 -1 -116 -5 -134 -15z m211 -165 l0 -70 -75 0 -75 0 0 70 0 70 75
0 75 0 0 -70z m1430 0 l0 -70 -70 0 -70 0 0 70 0 70 70 0 70 0 0 -70z m-246
-98 c7 -45 30 -69 80 -83 l36 -10 0 -544 c0 -534 0 -545 -20 -545 -51 0 -100
-49 -100 -100 0 -20 -2 -20 -535 -20 -484 0 -535 2 -535 16 0 53 -51 104 -105
104 l-25 0 0 544 0 544 43 10 c52 14 73 35 82 85 l7 37 533 0 532 0 7 -38z
m-1184 -1362 l0 -70 -70 0 -70 0 0 70 0 70 70 0 70 0 0 -70z m1440 0 l0 -70
-70 0 -70 0 0 70 0 70 70 0 70 0 0 -70z"/>
<path d="M5657 6614 c-246 -55 -445 -249 -512 -499 -25 -94 -30 -256 -11 -344
42 -199 158 -335 340 -399 137 -49 375 -27 528 48 107 53 97 32 129 287 16
125 31 245 34 266 l7 37 -206 0 c-156 0 -208 -3 -211 -12 -12 -32 -22 -154
-13 -170 7 -15 22 -18 80 -18 l71 0 -7 -62 c-18 -167 -13 -155 -64 -172 -68
-24 -195 -21 -249 5 -57 27 -117 98 -144 168 -29 73 -31 246 -5 336 39 133
112 230 213 281 52 26 68 29 149 29 90 0 93 -1 187 -49 115 -60 119 -59 202
41 l56 68 -38 33 c-112 95 -209 133 -363 138 -70 2 -127 -1 -173 -12z"/>
<path d="M6660 6259 c-177 -30 -326 -174 -386 -375 -26 -87 -24 -241 5 -316
29 -75 97 -150 168 -184 105 -52 282 -45 403 16 66 33 160 107 160 124 0 19
-84 106 -101 106 -9 0 -51 -18 -94 -40 -68 -34 -88 -40 -143 -40 -83 0 -124
23 -147 84 -9 24 -15 54 -13 67 3 21 11 24 98 36 52 7 126 23 165 34 176 53
250 121 262 243 4 42 0 60 -24 106 -56 110 -198 166 -353 139z m117 -195 c20
-20 24 -31 19 -57 -4 -18 -16 -40 -29 -49 -33 -27 -121 -57 -183 -64 -56 -7
-56 -7 -49 17 43 138 174 221 242 153z"/>
<path d="M7438 6260 c-166 -29 -279 -154 -282 -309 -1 -110 48 -176 162 -217
144 -51 185 -88 163 -147 -26 -69 -129 -83 -222 -29 -86 49 -100 44 -163 -48
l-37 -55 33 -28 c62 -52 131 -72 253 -72 104 0 114 2 183 34 82 39 132 87 168
165 46 99 24 225 -50 280 -17 14 -73 42 -124 64 -109 47 -132 65 -132 103 0
41 9 58 41 74 42 22 107 18 167 -10 80 -37 95 -34 147 32 l44 57 -20 22 c-58
62 -222 104 -331 84z"/>
<path d="M8140 6260 c-150 -32 -254 -145 -267 -291 -11 -122 46 -195 196 -249
102 -37 131 -61 131 -106 0 -54 -41 -84 -114 -84 -47 0 -70 6 -117 32 -49 27
-63 31 -86 22 -32 -11 -109 -115 -101 -136 8 -19 101 -68 162 -84 99 -27 232
-12 326 36 98 50 163 157 163 269 0 107 -38 158 -158 211 -38 17 -89 40 -112
51 -74 37 -81 111 -13 147 35 18 125 9 181 -18 30 -15 55 -21 70 -16 24 6 94
93 94 118 0 16 -96 75 -145 88 -54 15 -160 20 -210 10z"/>
<path d="M8940 6259 c-131 -26 -268 -136 -334 -269 -123 -250 -57 -535 142
-611 259 -98 541 69 617 366 20 77 19 207 -1 276 -53 181 -224 277 -424 238z
m119 -203 c36 -19 52 -57 59 -140 10 -137 -43 -294 -117 -343 -70 -47 -157
-22 -182 54 -18 54 -7 225 19 291 48 125 138 181 221 138z"/>
</g>
</svg>
